<mxfile host="65bd71144e">
    <diagram id="cf1-UEpMAGkrEAArkN4n" name="Page-1">
        <mxGraphModel dx="437" dy="764" grid="1" gridSize="10" guides="1" tooltips="1" connect="1" arrows="1" fold="1" page="1" pageScale="1" pageWidth="1654" pageHeight="1169" math="0" shadow="0">
            <root>
                <mxCell id="0"/>
                <mxCell id="1" parent="0"/>
                <mxCell id="nt9FY-NOLkIDbp6GFsl4-22" value="&lt;font style=&quot;font-size: 28px&quot;&gt;Q&amp;amp;A&lt;/font&gt;" style="rounded=0;whiteSpace=wrap;html=1;fontColor=#333333;strokeColor=#666666;fillColor=#f5f5f5;verticalAlign=bottom;" parent="1" vertex="1">
                    <mxGeometry x="1020" y="459" width="413" height="280" as="geometry"/>
                </mxCell>
                <mxCell id="aWCWr4O4U6gAWxHUobnn-5" value="" style="verticalLabelPosition=bottom;verticalAlign=top;html=1;shape=mxgraph.basic.layered_rect;dx=10;outlineConnect=0;fontSize=16;strokeWidth=1;" parent="1" vertex="1">
                    <mxGeometry x="1251" y="585.5" width="169" height="124.5" as="geometry"/>
                </mxCell>
                <mxCell id="nt9FY-NOLkIDbp6GFsl4-25" value="User Pages" style="rounded=0;whiteSpace=wrap;html=1;fontSize=28;fontColor=#333333;strokeColor=#666666;fillColor=#f5f5f5;verticalAlign=bottom;" parent="1" vertex="1">
                    <mxGeometry x="572" y="770" width="510" height="310" as="geometry"/>
                </mxCell>
                <mxCell id="aWCWr4O4U6gAWxHUobnn-3" value="" style="verticalLabelPosition=bottom;verticalAlign=top;html=1;shape=mxgraph.basic.layered_rect;dx=10;outlineConnect=0;fontSize=16;strokeWidth=1;" parent="1" vertex="1">
                    <mxGeometry x="899" y="790" width="171" height="90" as="geometry"/>
                </mxCell>
                <mxCell id="aWCWr4O4U6gAWxHUobnn-1" value="" style="verticalLabelPosition=bottom;verticalAlign=top;html=1;shape=mxgraph.basic.layered_rect;dx=10;outlineConnect=0;fontSize=16;strokeWidth=1;" parent="1" vertex="1">
                    <mxGeometry x="1040" y="600" width="170" height="90" as="geometry"/>
                </mxCell>
                <mxCell id="nt9FY-NOLkIDbp6GFsl4-28" value="Administration" style="rounded=0;whiteSpace=wrap;html=1;fontSize=28;fontColor=#333333;strokeColor=#666666;fillColor=#f5f5f5;verticalAlign=top;" parent="1" vertex="1">
                    <mxGeometry x="627" y="239" width="400" height="190" as="geometry"/>
                </mxCell>
                <mxCell id="nt9FY-NOLkIDbp6GFsl4-26" value="Static/Misc" style="rounded=0;whiteSpace=wrap;html=1;fontSize=28;fontColor=#333333;strokeColor=#666666;fillColor=#f5f5f5;verticalAlign=middle;" parent="1" vertex="1">
                    <mxGeometry x="397" y="419" width="200" height="320" as="geometry"/>
                </mxCell>
                <mxCell id="XDWxVUKf-yOU8ELigI7O-1" value="&lt;font&gt;&lt;b&gt;&lt;font style=&quot;font-size: 24px&quot;&gt;Homepage&lt;/font&gt;&lt;br&gt;&lt;/b&gt;&lt;/font&gt;&lt;font&gt;&lt;span style=&quot;font-size: 20px&quot;&gt;UI01&lt;/span&gt;&lt;br&gt;&lt;font style=&quot;font-size: 18px&quot;&gt;&lt;i&gt;/&lt;/i&gt;&lt;/font&gt;&lt;br&gt;&lt;/font&gt;" style="rounded=0;whiteSpace=wrap;html=1;fillColor=default;strokeColor=default;fontColor=default;spacing=2;" parent="1" vertex="1">
                    <mxGeometry x="727" y="519" width="200" height="120" as="geometry"/>
                </mxCell>
                <mxCell id="XDWxVUKf-yOU8ELigI7O-4" value="&lt;font&gt;&lt;b&gt;&lt;span style=&quot;font-size: 24px&quot;&gt;Question&lt;/span&gt;&lt;br&gt;&lt;/b&gt;&lt;/font&gt;&lt;font&gt;&lt;span style=&quot;font-size: 20px&quot;&gt;UI20&lt;/span&gt;&lt;br&gt;&lt;font style=&quot;font-size: 18px&quot;&gt;&lt;i&gt;/q/[id]&lt;/i&gt;&lt;/font&gt;&lt;br&gt;&lt;/font&gt;" style="rounded=0;whiteSpace=wrap;html=1;strokeColor=default;fontColor=default;shadow=0;spacing=2;fillColor=none;" parent="1" vertex="1">
                    <mxGeometry x="1040" y="600" width="160" height="80" as="geometry"/>
                </mxCell>
                <mxCell id="XDWxVUKf-yOU8ELigI7O-6" value="" style="endArrow=none;html=1;rounded=0;labelBackgroundColor=default;fontSize=18;fontColor=default;strokeColor=default;exitX=1;exitY=0.5;exitDx=0;exitDy=0;entryX=0;entryY=0.5;entryDx=0;entryDy=0;fillColor=default;spacing=2;" parent="1" source="XDWxVUKf-yOU8ELigI7O-1" target="XDWxVUKf-yOU8ELigI7O-4" edge="1">
                    <mxGeometry width="50" height="50" relative="1" as="geometry">
                        <mxPoint x="1097" y="689" as="sourcePoint"/>
                        <mxPoint x="1147" y="639" as="targetPoint"/>
                    </mxGeometry>
                </mxCell>
                <mxCell id="XDWxVUKf-yOU8ELigI7O-7" value="&lt;p style=&quot;line-height: 1&quot;&gt;&lt;font&gt;&lt;b&gt;&lt;font style=&quot;font-size: 24px&quot;&gt;User Profile&lt;/font&gt;&lt;br&gt;&lt;/b&gt;&lt;/font&gt;&lt;font&gt;&lt;span style=&quot;font-size: 20px&quot;&gt;UI10&lt;/span&gt;&lt;br&gt;&lt;font style=&quot;font-size: 18px&quot;&gt;&lt;i&gt;/u/[id]&lt;/i&gt;&lt;/font&gt;&lt;br&gt;&lt;/font&gt;&lt;/p&gt;" style="rounded=0;whiteSpace=wrap;html=1;fillColor=default;strokeColor=default;fontColor=default;spacing=2;" parent="1" vertex="1">
                    <mxGeometry x="899" y="790" width="160" height="80" as="geometry"/>
                </mxCell>
                <mxCell id="XDWxVUKf-yOU8ELigI7O-8" value="" style="endArrow=none;html=1;rounded=0;labelBackgroundColor=default;fontSize=18;fontColor=default;strokeColor=default;fillColor=default;entryX=0.5;entryY=1;entryDx=0;entryDy=0;exitX=0.5;exitY=0;exitDx=0;exitDy=0;spacing=2;" parent="1" source="XDWxVUKf-yOU8ELigI7O-7" target="XDWxVUKf-yOU8ELigI7O-1" edge="1">
                    <mxGeometry width="50" height="50" relative="1" as="geometry">
                        <mxPoint x="817" y="789" as="sourcePoint"/>
                        <mxPoint x="867" y="739" as="targetPoint"/>
                    </mxGeometry>
                </mxCell>
                <mxCell id="XDWxVUKf-yOU8ELigI7O-9" value="&lt;font&gt;&lt;b&gt;&lt;font style=&quot;font-size: 24px&quot;&gt;About&lt;/font&gt;&lt;br&gt;&lt;/b&gt;&lt;/font&gt;&lt;font&gt;&lt;span style=&quot;font-size: 20px&quot;&gt;UI40&lt;/span&gt;&lt;br&gt;&lt;font style=&quot;font-size: 18px&quot;&gt;&lt;i&gt;/about&lt;/i&gt;&lt;/font&gt;&lt;br&gt;&lt;/font&gt;" style="rounded=0;whiteSpace=wrap;html=1;fillColor=default;strokeColor=default;fontColor=default;spacing=2;" parent="1" vertex="1">
                    <mxGeometry x="417" y="439" width="160" height="80" as="geometry"/>
                </mxCell>
                <mxCell id="nt9FY-NOLkIDbp6GFsl4-1" value="" style="endArrow=none;html=1;rounded=0;strokeColor=default;labelBackgroundColor=default;fontColor=default;entryX=0;entryY=0.5;entryDx=0;entryDy=0;exitX=1;exitY=0.5;exitDx=0;exitDy=0;spacing=2;fillColor=default;" parent="1" source="XDWxVUKf-yOU8ELigI7O-9" target="XDWxVUKf-yOU8ELigI7O-1" edge="1">
                    <mxGeometry width="50" height="50" relative="1" as="geometry">
                        <mxPoint x="667" y="699" as="sourcePoint"/>
                        <mxPoint x="717" y="649" as="targetPoint"/>
                    </mxGeometry>
                </mxCell>
                <mxCell id="nt9FY-NOLkIDbp6GFsl4-2" value="&lt;font&gt;&lt;b&gt;&lt;span style=&quot;font-size: 24px&quot;&gt;Search&lt;/span&gt;&lt;br&gt;&lt;/b&gt;&lt;/font&gt;&lt;font&gt;&lt;span style=&quot;font-size: 20px&quot;&gt;UI22&lt;/span&gt;&lt;br&gt;&lt;font style=&quot;font-size: 18px&quot;&gt;&lt;i&gt;/search&lt;/i&gt;&lt;/font&gt;&lt;br&gt;&lt;/font&gt;" style="rounded=0;whiteSpace=wrap;html=1;strokeColor=default;fontColor=default;spacing=2;" parent="1" vertex="1">
                    <mxGeometry x="1040" y="479" width="160" height="80" as="geometry"/>
                </mxCell>
                <mxCell id="nt9FY-NOLkIDbp6GFsl4-3" value="" style="endArrow=none;html=1;rounded=0;labelBackgroundColor=default;fontColor=default;strokeColor=default;fillColor=default;exitX=0;exitY=0.5;exitDx=0;exitDy=0;entryX=1;entryY=0.5;entryDx=0;entryDy=0;" parent="1" source="nt9FY-NOLkIDbp6GFsl4-2" target="XDWxVUKf-yOU8ELigI7O-1" edge="1">
                    <mxGeometry width="50" height="50" relative="1" as="geometry">
                        <mxPoint x="817" y="669" as="sourcePoint"/>
                        <mxPoint x="907" y="599" as="targetPoint"/>
                    </mxGeometry>
                </mxCell>
                <mxCell id="nt9FY-NOLkIDbp6GFsl4-4" value="&lt;font&gt;&lt;b&gt;&lt;span style=&quot;font-size: 24px&quot;&gt;User Management&lt;/span&gt;&lt;br&gt;&lt;/b&gt;&lt;/font&gt;&lt;font&gt;&lt;span style=&quot;font-size: 20px&quot;&gt;UI30&lt;/span&gt;&lt;br&gt;&lt;font style=&quot;font-size: 18px&quot;&gt;&lt;i&gt;/admin/users&lt;/i&gt;&lt;/font&gt;&lt;br&gt;&lt;/font&gt;" style="rounded=0;whiteSpace=wrap;html=1;fillColor=default;strokeColor=default;fontColor=default;spacing=2;" parent="1" vertex="1">
                    <mxGeometry x="847" y="289" width="160" height="120" as="geometry"/>
                </mxCell>
                <mxCell id="nt9FY-NOLkIDbp6GFsl4-9" value="" style="endArrow=none;html=1;rounded=0;labelBackgroundColor=default;fontColor=default;strokeColor=default;fillColor=default;exitX=0.5;exitY=1;exitDx=0;exitDy=0;entryX=0.5;entryY=0;entryDx=0;entryDy=0;" parent="1" source="nt9FY-NOLkIDbp6GFsl4-4" target="XDWxVUKf-yOU8ELigI7O-1" edge="1">
                    <mxGeometry width="50" height="50" relative="1" as="geometry">
                        <mxPoint x="817" y="629" as="sourcePoint"/>
                        <mxPoint x="867" y="579" as="targetPoint"/>
                    </mxGeometry>
                </mxCell>
                <mxCell id="nt9FY-NOLkIDbp6GFsl4-13" value="&lt;font&gt;&lt;b&gt;&lt;span style=&quot;font-size: 24px&quot;&gt;Question Management&lt;/span&gt;&lt;br&gt;&lt;/b&gt;&lt;/font&gt;&lt;font&gt;&lt;span style=&quot;font-size: 20px&quot;&gt;UI31&lt;/span&gt;&lt;br&gt;&lt;font style=&quot;font-size: 18px&quot;&gt;&lt;i&gt;/admin/questions&lt;/i&gt;&lt;/font&gt;&lt;br&gt;&lt;/font&gt;" style="rounded=0;whiteSpace=wrap;html=1;strokeColor=default;fontColor=default;spacing=2;" parent="1" vertex="1">
                    <mxGeometry x="647" y="289" width="160" height="120" as="geometry"/>
                </mxCell>
                <mxCell id="nt9FY-NOLkIDbp6GFsl4-14" value="" style="endArrow=none;html=1;rounded=0;labelBackgroundColor=default;fontColor=default;strokeColor=default;fillColor=default;entryX=0.5;entryY=1;entryDx=0;entryDy=0;exitX=0.5;exitY=0;exitDx=0;exitDy=0;" parent="1" source="XDWxVUKf-yOU8ELigI7O-1" target="nt9FY-NOLkIDbp6GFsl4-13" edge="1">
                    <mxGeometry width="50" height="50" relative="1" as="geometry">
                        <mxPoint x="827" y="559" as="sourcePoint"/>
                        <mxPoint x="867" y="529" as="targetPoint"/>
                    </mxGeometry>
                </mxCell>
                <mxCell id="nt9FY-NOLkIDbp6GFsl4-15" value="&lt;p style=&quot;line-height: 1&quot;&gt;&lt;font&gt;&lt;b&gt;&lt;font style=&quot;font-size: 24px&quot;&gt;Settings&lt;/font&gt;&lt;br&gt;&lt;/b&gt;&lt;/font&gt;&lt;font&gt;&lt;span style=&quot;font-size: 20px&quot;&gt;UI11&lt;/span&gt;&lt;br&gt;&lt;font style=&quot;font-size: 18px&quot;&gt;&lt;i&gt;/settings&lt;/i&gt;&lt;/font&gt;&lt;br&gt;&lt;/font&gt;&lt;/p&gt;" style="rounded=0;whiteSpace=wrap;html=1;fillColor=default;strokeColor=default;fontColor=default;spacing=2;" parent="1" vertex="1">
                    <mxGeometry x="592" y="790" width="160" height="80" as="geometry"/>
                </mxCell>
                <mxCell id="nt9FY-NOLkIDbp6GFsl4-18" value="" style="endArrow=none;html=1;rounded=0;labelBackgroundColor=default;fontColor=default;strokeColor=default;fillColor=default;exitX=0.5;exitY=1;exitDx=0;exitDy=0;entryX=0.5;entryY=0;entryDx=0;entryDy=0;" parent="1" source="XDWxVUKf-yOU8ELigI7O-1" target="nt9FY-NOLkIDbp6GFsl4-15" edge="1">
                    <mxGeometry width="50" height="50" relative="1" as="geometry">
                        <mxPoint x="817" y="619" as="sourcePoint"/>
                        <mxPoint x="867" y="569" as="targetPoint"/>
                    </mxGeometry>
                </mxCell>
                <mxCell id="nt9FY-NOLkIDbp6GFsl4-20" value="&lt;font&gt;&lt;b&gt;&lt;font style=&quot;font-size: 24px&quot;&gt;Contact&lt;/font&gt;&lt;br&gt;&lt;/b&gt;&lt;/font&gt;&lt;font&gt;&lt;span style=&quot;font-size: 20px&quot;&gt;UI41&lt;/span&gt;&lt;br&gt;&lt;font style=&quot;font-size: 18px&quot;&gt;&lt;i&gt;/support&lt;/i&gt;&lt;/font&gt;&lt;br&gt;&lt;/font&gt;" style="rounded=0;whiteSpace=wrap;html=1;fillColor=default;strokeColor=default;fontColor=default;spacing=2;" parent="1" vertex="1">
                    <mxGeometry x="417" y="639" width="160" height="80" as="geometry"/>
                </mxCell>
                <mxCell id="nt9FY-NOLkIDbp6GFsl4-21" value="" style="endArrow=none;html=1;rounded=0;labelBackgroundColor=default;fontColor=default;strokeColor=default;fillColor=default;exitX=1;exitY=0.5;exitDx=0;exitDy=0;entryX=0;entryY=0.5;entryDx=0;entryDy=0;" parent="1" source="nt9FY-NOLkIDbp6GFsl4-20" target="XDWxVUKf-yOU8ELigI7O-1" edge="1">
                    <mxGeometry width="50" height="50" relative="1" as="geometry">
                        <mxPoint x="637" y="699" as="sourcePoint"/>
                        <mxPoint x="867" y="529" as="targetPoint"/>
                    </mxGeometry>
                </mxCell>
                <mxCell id="47RFJs9OLJo7-PU6eE_o-1" value="&lt;p style=&quot;line-height: 1&quot;&gt;&lt;font&gt;&lt;b&gt;&lt;font style=&quot;font-size: 24px&quot;&gt;Profile Settings&lt;/font&gt;&lt;br&gt;&lt;/b&gt;&lt;/font&gt;&lt;font&gt;&lt;span style=&quot;font-size: 20px&quot;&gt;UI12&lt;/span&gt;&lt;br&gt;&lt;font style=&quot;font-size: 18px&quot;&gt;&lt;i&gt;/settings/profile&lt;/i&gt;&lt;/font&gt;&lt;br&gt;&lt;/font&gt;&lt;/p&gt;" style="rounded=0;whiteSpace=wrap;html=1;fillColor=default;strokeColor=default;fontColor=default;spacing=2;" parent="1" vertex="1">
                    <mxGeometry x="592" y="920" width="160" height="110" as="geometry"/>
                </mxCell>
                <mxCell id="47RFJs9OLJo7-PU6eE_o-2" value="" style="endArrow=none;html=1;rounded=0;entryX=0.5;entryY=1;entryDx=0;entryDy=0;exitX=0.5;exitY=0;exitDx=0;exitDy=0;" parent="1" source="47RFJs9OLJo7-PU6eE_o-1" target="nt9FY-NOLkIDbp6GFsl4-15" edge="1">
                    <mxGeometry width="50" height="50" relative="1" as="geometry">
                        <mxPoint x="862" y="770" as="sourcePoint"/>
                        <mxPoint x="912" y="720" as="targetPoint"/>
                    </mxGeometry>
                </mxCell>
                <mxCell id="47RFJs9OLJo7-PU6eE_o-4" value="&lt;font&gt;&lt;b&gt;&lt;span style=&quot;font-size: 24px&quot;&gt;Question Settings&lt;/span&gt;&lt;br&gt;&lt;/b&gt;&lt;/font&gt;&lt;font&gt;&lt;span style=&quot;font-size: 20px&quot;&gt;UI21&lt;/span&gt;&lt;br&gt;&lt;font style=&quot;font-size: 18px&quot;&gt;&lt;i&gt;/q/[id]/settings&lt;/i&gt;&lt;/font&gt;&lt;br&gt;&lt;/font&gt;" style="rounded=0;whiteSpace=wrap;html=1;strokeColor=default;fontColor=default;shadow=0;spacing=2;" parent="1" vertex="1">
                    <mxGeometry x="1251" y="585.5" width="159" height="114.5" as="geometry"/>
                </mxCell>
                <mxCell id="47RFJs9OLJo7-PU6eE_o-5" value="" style="endArrow=none;html=1;rounded=0;exitX=1;exitY=0.5;exitDx=0;exitDy=0;entryX=0;entryY=0.5;entryDx=0;entryDy=0;" parent="1" source="XDWxVUKf-yOU8ELigI7O-4" target="47RFJs9OLJo7-PU6eE_o-4" edge="1">
                    <mxGeometry width="50" height="50" relative="1" as="geometry">
                        <mxPoint x="1243" y="709" as="sourcePoint"/>
                        <mxPoint x="1293" y="659" as="targetPoint"/>
                    </mxGeometry>
                </mxCell>
            </root>
        </mxGraphModel>
    </diagram>
</mxfile>